<svg xmlns="http://www.w3.org/2000/svg" xmlns:xlink="http://www.w3.org/1999/xlink" xml:space="preserve" version="1.1" style="shape-rendering:geometricPrecision;text-rendering:geometricPrecision;image-rendering:optimizeQuality;" viewBox="0 0 847 1058.75" x="0px" y="0px" fill-rule="evenodd" clip-rule="evenodd"><defs><style type="text/css">
   
    .fil0 {fill:black}
   
  </style></defs><g><path class="fil0" d="M62 777l0 -708c0,-31 25,-56 56,-56l191 0c31,0 57,25 57,56l0 708c0,32 -26,57 -57,57l-191 0c-31,0 -56,-25 -56,-57zm419 0l0 -708c0,-31 25,-56 56,-56l191 0c31,0 57,25 57,56l0 708c0,32 -26,57 -57,57l-191 0c-31,0 -56,-25 -56,-57z"/></g><text x="0" y="862" fill="#000000" font-size="5px" font-weight="bold" font-family="'Helvetica Neue', Helvetica, Arial-Unicode, Arial, Sans-serif">Created by amantaka</text><text x="0" y="867" fill="#000000" font-size="5px" font-weight="bold" font-family="'Helvetica Neue', Helvetica, Arial-Unicode, Arial, Sans-serif">from the Noun Project</text></svg>